<mxfile host="app.diagrams.net" modified="2023-09-18T19:14:55.535Z" agent="Mozilla/5.0 (Windows NT 10.0; Win64; x64) AppleWebKit/537.36 (KHTML, like Gecko) Chrome/117.0.0.0 Safari/537.36 Edg/117.0.2045.31" etag="bGkeVZeh9QaFBtIkomZo" version="21.7.5" type="device">
  <diagram name="P치gina-1" id="pkyLj6tKCkLaayYyD-G6">
    <mxGraphModel dx="1030" dy="1738" grid="1" gridSize="10" guides="1" tooltips="1" connect="1" arrows="1" fold="1" page="1" pageScale="1" pageWidth="827" pageHeight="1169" math="0" shadow="0">
      <root>
        <mxCell id="0" />
        <mxCell id="1" parent="0" />
        <mxCell id="yr29gIws2wd24BPrNrxK-17" style="edgeStyle=orthogonalEdgeStyle;rounded=0;orthogonalLoop=1;jettySize=auto;html=1;exitX=1;exitY=0.3333333333333333;exitDx=0;exitDy=0;exitPerimeter=0;" edge="1" parent="1" source="yr29gIws2wd24BPrNrxK-1" target="yr29gIws2wd24BPrNrxK-8">
          <mxGeometry relative="1" as="geometry" />
        </mxCell>
        <mxCell id="yr29gIws2wd24BPrNrxK-1" value="Usu치rio&lt;br&gt;" style="shape=umlActor;verticalLabelPosition=bottom;verticalAlign=top;html=1;outlineConnect=0;" vertex="1" parent="1">
          <mxGeometry x="250" y="30" width="30" height="60" as="geometry" />
        </mxCell>
        <mxCell id="yr29gIws2wd24BPrNrxK-3" value="Administrador" style="shape=umlActor;verticalLabelPosition=bottom;verticalAlign=top;html=1;outlineConnect=0;" vertex="1" parent="1">
          <mxGeometry x="240" y="370" width="30" height="60" as="geometry" />
        </mxCell>
        <mxCell id="yr29gIws2wd24BPrNrxK-4" value="Registrar Vendas&lt;br&gt;" style="ellipse;whiteSpace=wrap;html=1;" vertex="1" parent="1">
          <mxGeometry x="380" y="-140" width="120" height="80" as="geometry" />
        </mxCell>
        <mxCell id="yr29gIws2wd24BPrNrxK-5" value="Gerenciar Produtos&lt;br&gt;" style="ellipse;whiteSpace=wrap;html=1;" vertex="1" parent="1">
          <mxGeometry x="380" y="260" width="120" height="80" as="geometry" />
        </mxCell>
        <mxCell id="yr29gIws2wd24BPrNrxK-6" value="Gerenciar Fornecedores" style="ellipse;whiteSpace=wrap;html=1;" vertex="1" parent="1">
          <mxGeometry x="380" y="70" width="120" height="80" as="geometry" />
        </mxCell>
        <mxCell id="yr29gIws2wd24BPrNrxK-7" value="Gerenciar hierarquia de acesso de usu치rios" style="ellipse;whiteSpace=wrap;html=1;" vertex="1" parent="1">
          <mxGeometry x="380" y="360" width="120" height="80" as="geometry" />
        </mxCell>
        <mxCell id="yr29gIws2wd24BPrNrxK-8" value="Validar Compras" style="ellipse;whiteSpace=wrap;html=1;" vertex="1" parent="1">
          <mxGeometry x="540" y="10" width="120" height="80" as="geometry" />
        </mxCell>
        <mxCell id="yr29gIws2wd24BPrNrxK-9" value="Gerar c칩digo de produtos" style="ellipse;whiteSpace=wrap;html=1;" vertex="1" parent="1">
          <mxGeometry x="380" y="-40" width="120" height="80" as="geometry" />
        </mxCell>
        <mxCell id="yr29gIws2wd24BPrNrxK-10" value="" style="edgeStyle=none;orthogonalLoop=1;jettySize=auto;html=1;rounded=0;exitX=1;exitY=0.3333333333333333;exitDx=0;exitDy=0;exitPerimeter=0;entryX=0;entryY=1;entryDx=0;entryDy=0;" edge="1" parent="1" source="yr29gIws2wd24BPrNrxK-1" target="yr29gIws2wd24BPrNrxK-4">
          <mxGeometry width="100" relative="1" as="geometry">
            <mxPoint x="220" y="-20" as="sourcePoint" />
            <mxPoint x="320" y="-20" as="targetPoint" />
            <Array as="points" />
          </mxGeometry>
        </mxCell>
        <mxCell id="yr29gIws2wd24BPrNrxK-11" value="" style="edgeStyle=none;orthogonalLoop=1;jettySize=auto;html=1;rounded=0;exitX=1;exitY=0.3333333333333333;exitDx=0;exitDy=0;exitPerimeter=0;entryX=0;entryY=0.5;entryDx=0;entryDy=0;" edge="1" parent="1" source="yr29gIws2wd24BPrNrxK-1" target="yr29gIws2wd24BPrNrxK-9">
          <mxGeometry width="100" relative="1" as="geometry">
            <mxPoint x="200" as="sourcePoint" />
            <mxPoint x="300" as="targetPoint" />
            <Array as="points" />
          </mxGeometry>
        </mxCell>
        <mxCell id="yr29gIws2wd24BPrNrxK-15" value="" style="edgeStyle=none;orthogonalLoop=1;jettySize=auto;html=1;rounded=0;entryX=-0.01;entryY=0.384;entryDx=0;entryDy=0;entryPerimeter=0;exitX=1;exitY=0.3333333333333333;exitDx=0;exitDy=0;exitPerimeter=0;" edge="1" parent="1" source="yr29gIws2wd24BPrNrxK-3" target="yr29gIws2wd24BPrNrxK-7">
          <mxGeometry width="100" relative="1" as="geometry">
            <mxPoint x="100" y="160" as="sourcePoint" />
            <mxPoint x="200" y="160" as="targetPoint" />
            <Array as="points" />
          </mxGeometry>
        </mxCell>
        <mxCell id="yr29gIws2wd24BPrNrxK-19" value="" style="edgeStyle=none;orthogonalLoop=1;jettySize=auto;html=1;rounded=0;entryX=0;entryY=0.5;entryDx=0;entryDy=0;exitX=1;exitY=0.3333333333333333;exitDx=0;exitDy=0;exitPerimeter=0;" edge="1" parent="1" source="yr29gIws2wd24BPrNrxK-1" target="yr29gIws2wd24BPrNrxK-6">
          <mxGeometry width="100" relative="1" as="geometry">
            <mxPoint x="150" y="-60" as="sourcePoint" />
            <mxPoint x="250" y="-60" as="targetPoint" />
            <Array as="points" />
          </mxGeometry>
        </mxCell>
        <mxCell id="yr29gIws2wd24BPrNrxK-21" value="" style="edgeStyle=none;orthogonalLoop=1;jettySize=auto;html=1;rounded=0;entryX=0;entryY=1;entryDx=0;entryDy=0;" edge="1" parent="1" target="yr29gIws2wd24BPrNrxK-5">
          <mxGeometry width="100" relative="1" as="geometry">
            <mxPoint x="270" y="390" as="sourcePoint" />
            <mxPoint x="300" y="160" as="targetPoint" />
            <Array as="points" />
          </mxGeometry>
        </mxCell>
        <mxCell id="yr29gIws2wd24BPrNrxK-22" value="" style="rounded=0;whiteSpace=wrap;html=1;fillColor=none;" vertex="1" parent="1">
          <mxGeometry x="320" y="-160" width="360" height="720" as="geometry" />
        </mxCell>
      </root>
    </mxGraphModel>
  </diagram>
</mxfile>
